<svg width="400" height="300" viewBox="0 0 400 300" xmlns="http://www.w3.org/2000/svg">
  <defs>
    <linearGradient id="officeGrad" x1="0%" y1="0%" x2="100%" y2="100%">
      <stop offset="0%" style="stop-color:#ff9800;stop-opacity:0.3" />
      <stop offset="100%" style="stop-color:#ff6b00;stop-opacity:0.3" />
    </linearGradient>
  </defs>
  
  <!-- Background -->
  <rect width="400" height="300" fill="#f5f5f5"/>
  
  <!-- Floor -->
  <rect x="0" y="200" width="400" height="100" fill="#d4d4d4"/>
  
  <!-- Desk -->
  <rect x="50" y="160" width="200" height="40" fill="#8B4513"/>
  <rect x="45" y="195" width="10" height="30" fill="#654321"/>
  <rect x="245" y="195" width="10" height="30" fill="#654321"/>
  
  <!-- Monitor -->
  <rect x="80" y="120" width="120" height="80" fill="#333" rx="5"/>
  <rect x="85" y="125" width="110" height="70" fill="#000" rx="3"/>
  
  <!-- Code on monitor -->
  <rect x="90" y="135" width="60" height="2" fill="#ff9800"/>
  <rect x="90" y="140" width="80" height="2" fill="#ff6b00"/>
  <rect x="100" y="145" width="70" height="2" fill="#ffb74d"/>
  <rect x="90" y="150" width="50" height="2" fill="#ff9800"/>
  <rect x="100" y="155" width="90" height="2" fill="#ff6b00"/>
  <rect x="90" y="160" width="75" height="2" fill="#ffb74d"/>
  <rect x="100" y="165" width="60" height="2" fill="#ff9800"/>
  <rect x="90" y="170" width="85" height="2" fill="#ff6b00"/>
  <rect x="100" y="175" width="70" height="2" fill="#ffb74d"/>
  <rect x="90" y="180" width="55" height="2" fill="#ff9800"/>
  
  <!-- Monitor stand -->
  <rect x="135" y="200" width="20" height="15" fill="#666"/>
  <rect x="120" y="210" width="50" height="8" fill="#555"/>
  
  <!-- Keyboard and mouse -->
  <rect x="90" y="205" width="100" height="20" fill="#333" rx="3"/>
  <ellipse cx="220" cy="215" rx="10" ry="15" fill="#444"/>
  
  <!-- Office chair -->
  <ellipse cx="150" cy="240" rx="25" ry="15" fill="#2196f3"/>
  <rect x="145" y="225" width="10" height="20" fill="#333"/>
  <circle cx="150" cy="220" r="8" fill="#2196f3"/>
  
  <!-- Bookshelf -->
  <rect x="280" y="80" width="80" height="120" fill="#8B4513"/>
  <rect x="285" y="85" width="70" height="3" fill="#654321"/>
  <rect x="285" y="105" width="70" height="3" fill="#654321"/>
  <rect x="285" y="125" width="70" height="3" fill="#654321"/>
  <rect x="285" y="145" width="70" height="3" fill="#654321"/>
  <rect x="285" y="165" width="70" height="3" fill="#654321"/>
  <rect x="285" y="185" width="70" height="3" fill="#654321"/>
  
  <!-- Books -->
  <rect x="290" y="88" width="8" height="15" fill="#ff6b00"/>
  <rect x="300" y="88" width="8" height="15" fill="#4caf50"/>
  <rect x="310" y="88" width="8" height="15" fill="#2196f3"/>
  <rect x="320" y="88" width="8" height="15" fill="#ff9800"/>
  <rect x="330" y="88" width="8" height="15" fill="#9c27b0"/>
  
  <rect x="290" y="108" width="8" height="15" fill="#e91e63"/>
  <rect x="300" y="108" width="8" height="15" fill="#00bcd4"/>
  <rect x="310" y="108" width="8" height="15" fill="#795548"/>
  <rect x="320" y="108" width="8" height="15" fill="#607d8b"/>
  
  <!-- Plant -->
  <ellipse cx="30" cy="190" rx="8" ry="12" fill="#4caf50"/>
  <ellipse cx="25" cy="185" rx="6" ry="8" fill="#4caf50"/>
  <ellipse cx="35" cy="185" rx="6" ry="8" fill="#4caf50"/>
  <rect x="27" y="195" width="6" height="15" fill="#8bc34a"/>
  <ellipse cx="30" cy="210" rx="12" ry="6" fill="#795548"/>
  
  <!-- Window with light -->
  <rect x="0" y="40" width="40" height="100" fill="url(#officeGrad)" opacity="0.7"/>
  
  <!-- Motivational poster -->
  <rect x="20" y="60" width="40" height="30" fill="#fff" stroke="#ccc"/>
  <text x="25" y="75" font-family="Arial" font-size="6" fill="#333" font-weight="bold">INNOVATION</text>
  <text x="28" y="85" font-family="Arial" font-size="4" fill="#666">Never Stop Learning</text>
</svg>