<svg width="400" height="300" viewBox="0 0 400 300" xmlns="http://www.w3.org/2000/svg">
  <defs>
    <linearGradient id="proj1Grad" x1="0%" y1="0%" x2="100%" y2="100%">
      <stop offset="0%" style="stop-color:#ff9800;stop-opacity:1" />
      <stop offset="100%" style="stop-color:#ff6b00;stop-opacity:1" />
    </linearGradient>
  </defs>
  
  <!-- Background -->
  <rect width="400" height="300" fill="#f8f9fa"/>
  
  <!-- Browser window -->
  <rect x="20" y="40" width="360" height="220" fill="#fff" rx="8" stroke="#e0e0e0"/>
  
  <!-- Browser header -->
  <rect x="20" y="40" width="360" height="30" fill="#f5f5f5" rx="8 8 0 0"/>
  <circle cx="35" cy="55" r="4" fill="#ff5f56"/>
  <circle cx="50" cy="55" r="4" fill="#ffbd2e"/>
  <circle cx="65" cy="55" r="4" fill="#27ca3f"/>
  
  <!-- Address bar -->
  <rect x="90" y="47" width="240" height="16" fill="#fff" rx="8" stroke="#ddd"/>
  <text x="95" y="58" font-family="Arial" font-size="8" fill="#666">www.ecommerce-store.com</text>
  
  <!-- Navigation -->
  <rect x="30" y="80" width="340" height="20" fill="url(#proj1Grad)"/>
  <text x="40" y="93" font-family="Arial" font-size="10" fill="#fff" font-weight="bold">E-Commerce Store</text>
  <text x="280" y="93" font-family="Arial" font-size="8" fill="#fff">Home Products Cart Login</text>
  
  <!-- Product grid -->
  <rect x="40" y="110" width="80" height="80" fill="#fff" stroke="#eee"/>
  <rect x="45" y="115" width="70" height="50" fill="#ff9800" opacity="0.3"/>
  <text x="48" y="175" font-family="Arial" font-size="8" fill="#333">Product 1</text>
  <text x="48" y="185" font-family="Arial" font-size="7" fill="#ff6b00" font-weight="bold">$99.99</text>
  
  <rect x="130" y="110" width="80" height="80" fill="#fff" stroke="#eee"/>
  <rect x="135" y="115" width="70" height="50" fill="#ff6b00" opacity="0.3"/>
  <text x="138" y="175" font-family="Arial" font-size="8" fill="#333">Product 2</text>
  <text x="138" y="185" font-family="Arial" font-size="7" fill="#ff6b00" font-weight="bold">$149.99</text>
  
  <rect x="220" y="110" width="80" height="80" fill="#fff" stroke="#eee"/>
  <rect x="225" y="115" width="70" height="50" fill="#ffb74d" opacity="0.3"/>
  <text x="228" y="175" font-family="Arial" font-size="8" fill="#333">Product 3</text>
  <text x="228" y="185" font-family="Arial" font-size="7" fill="#ff6b00" font-weight="bold">$79.99</text>
  
  <rect x="310" y="110" width="60" height="80" fill="#fff" stroke="#eee"/>
  <rect x="315" y="115" width="50" height="50" fill="#ff9800" opacity="0.3"/>
  <text x="318" y="175" font-family="Arial" font-size="8" fill="#333">Cart (3)</text>
  <text x="318" y="185" font-family="Arial" font-size="7" fill="#ff6b00" font-weight="bold">$329.97</text>
  
  <!-- Shopping cart icon -->
  <path d="M 320 125 L 325 125 L 327 140 L 360 140 L 358 145 L 325 145 Z" fill="#ff6b00"/>
  <circle cx="330" cy="150" r="2" fill="#ff6b00"/>
  <circle cx="350" cy="150" r="2" fill="#ff6b00"/>
  
  <!-- Footer -->
  <rect x="30" y="200" width="340" height="30" fill="#333"/>
  <text x="40" y="218" font-family="Arial" font-size="8" fill="#fff">Secure Payments | Fast Shipping | 24/7 Support</text>
  
  <!-- Payment icons -->
  <rect x="320" y="210" width="15" height="8" fill="#ff9800" rx="2"/>
  <rect x="340" y="210" width="15" height="8" fill="#ff6b00" rx="2"/>
</svg>