<svg width="400" height="300" viewBox="0 0 400 300" xmlns="http://www.w3.org/2000/svg">
  <defs>
    <linearGradient id="deskGrad" x1="0%" y1="0%" x2="100%" y2="100%">
      <stop offset="0%" style="stop-color:#3a3a3a;stop-opacity:1" />
      <stop offset="100%" style="stop-color:#2a2a2a;stop-opacity:1" />
    </linearGradient>
    <linearGradient id="screenGrad" x1="0%" y1="0%" x2="100%" y2="100%">
      <stop offset="0%" style="stop-color:#1a1a1a;stop-opacity:1" />
      <stop offset="100%" style="stop-color:#0a0a0a;stop-opacity:1" />
    </linearGradient>
  </defs>
  
  <!-- Background -->
  <rect width="400" height="300" fill="#1a1a1a"/>
  
  <!-- Desk -->
  <rect x="0" y="220" width="400" height="80" fill="url(#deskGrad)"/>
  
  <!-- Monitor -->
  <rect x="80" y="80" width="240" height="140" fill="url(#screenGrad)" rx="8"/>
  <rect x="90" y="90" width="220" height="120" fill="#000" rx="4"/>
  
  <!-- Code on screen -->
  <rect x="100" y="100" width="60" height="3" fill="#ff9800"/>
  <rect x="100" y="110" width="90" height="3" fill="#ff6b00"/>
  <rect x="120" y="120" width="70" height="3" fill="#ffb74d"/>
  <rect x="100" y="130" width="50" height="3" fill="#ff9800"/>
  <rect x="100" y="140" width="110" height="3" fill="#ff6b00"/>
  <rect x="120" y="150" width="80" height="3" fill="#ffb74d"/>
  <rect x="100" y="160" width="60" height="3" fill="#ff9800"/>
  <rect x="120" y="170" width="90" height="3" fill="#ff6b00"/>
  <rect x="100" y="180" width="70" height="3" fill="#ffb74d"/>
  
  <!-- Monitor stand -->
  <rect x="180" y="220" width="40" height="20" fill="#666"/>
  <rect x="160" y="240" width="80" height="10" fill="#555"/>
  
  <!-- Keyboard -->
  <rect x="120" y="250" width="160" height="30" fill="#333" rx="4"/>
  <rect x="125" y="255" width="10" height="6" fill="#555" rx="1"/>
  <rect x="140" y="255" width="10" height="6" fill="#555" rx="1"/>
  <rect x="155" y="255" width="10" height="6" fill="#555" rx="1"/>
  <rect x="170" y="255" width="10" height="6" fill="#555" rx="1"/>
  <rect x="185" y="255" width="10" height="6" fill="#555" rx="1"/>
  <rect x="200" y="255" width="10" height="6" fill="#555" rx="1"/>
  <rect x="215" y="255" width="10" height="6" fill="#555" rx="1"/>
  <rect x="230" y="255" width="10" height="6" fill="#555" rx="1"/>
  <rect x="245" y="255" width="10" height="6" fill="#555" rx="1"/>
  <rect x="260" y="255" width="10" height="6" fill="#555" rx="1"/>
  
  <!-- Mouse -->
  <ellipse cx="320" cy="265" rx="15" ry="20" fill="#444"/>
  
  <!-- Coffee cup -->
  <ellipse cx="50" cy="245" rx="12" ry="8" fill="#8B4513"/>
  <rect x="38" y="240" width="24" height="15" fill="#D2691E"/>
  <path d="M 62 245 Q 68 245 68 250 Q 68 255 62 255" stroke="#8B4513" stroke-width="2" fill="none"/>
</svg>